<svg width="106" height="106" viewBox="0 0 106 106" fill="none" xmlns="http://www.w3.org/2000/svg">
<g filter="url(#filter0_d_5_6314)">
<rect x="20" y="10" width="66" height="66" rx="24" fill="url(#paint0_linear_5_6314)"/>
</g>
<path fill-rule="evenodd" clip-rule="evenodd" d="M47.6349 43.3045C51.1525 43.3045 54.0042 40.4528 54.0042 36.9352C54.0042 33.4176 51.1525 30.5659 47.6349 30.5659C44.1173 30.5659 41.2656 33.4176 41.2656 36.9352C41.2656 40.4528 44.1173 43.3045 47.6349 43.3045Z" fill="white"/>
<path fill-rule="evenodd" clip-rule="evenodd" d="M53.1641 42.5917C51.7321 43.9571 49.7827 44.7972 47.635 44.7972C45.4873 44.7972 43.5378 43.9571 42.1058 42.5917C41.8592 42.5306 41.6126 42.4701 41.3731 42.4396C41.1336 42.409 40.9019 42.409 40.6859 42.4424C40.4705 42.4751 40.2715 42.5419 40.0391 42.6251C39.8067 42.7075 39.5416 42.807 39.2098 43.0061C38.8786 43.2051 38.4799 43.5036 38.099 44.0019C37.7173 44.4987 37.3527 45.196 37.0208 46.0254C36.6889 46.8542 36.3905 47.8166 36.2249 48.7456C36.0593 49.6739 36.0259 50.5702 36.0095 51.2497C35.9925 51.9299 35.9925 52.3947 36.0593 52.8425C36.1254 53.2903 36.2576 53.721 36.5568 54.1525C36.8552 54.5839 37.3193 55.0154 37.8666 55.3466C38.4138 55.6785 39.0442 55.9109 39.9069 56.0268C40.769 56.1426 41.8635 56.1426 43.1903 56.1426H47.038H47.635H48.2319H52.0796C53.4064 56.1426 54.5009 56.1426 55.363 56.0268C56.2257 55.9109 56.8561 55.6785 57.4034 55.3466C57.9506 55.0154 58.4147 54.5839 58.7132 54.1525C59.0124 53.721 59.1445 53.2903 59.2106 52.8425C59.2774 52.3947 59.2774 51.9299 59.2604 51.2497C59.244 50.5702 59.2106 49.6739 59.045 48.7456C58.8795 47.8166 58.581 46.8542 58.2491 46.0254C57.9172 45.196 57.5526 44.4987 57.171 44.0019C56.79 43.5036 56.3913 43.2051 56.0602 43.0061C55.7283 42.807 55.4632 42.7075 55.2308 42.6251C54.9984 42.5419 54.7994 42.4751 54.5841 42.4424C54.368 42.409 54.1363 42.409 53.8968 42.4396C53.6573 42.4701 53.4107 42.5306 53.1641 42.5917Z" fill="white"/>
<path fill-rule="evenodd" clip-rule="evenodd" d="M54.4239 40.0739C55.5558 41.1074 57.063 41.7385 58.7166 41.7385C62.2333 41.7385 65.0843 38.8869 65.0843 35.3693C65.0843 31.8516 62.2333 29 58.7166 29C56.4583 29 54.4736 30.1763 53.3438 31.9497C54.6186 33.114 55.4187 34.7914 55.4187 36.6544C55.4187 37.9124 55.0535 39.0866 54.4239 40.0739Z" fill="white"/>
<path fill-rule="evenodd" clip-rule="evenodd" d="M63.8933 41.2606C62.5034 42.5848 60.6271 43.4157 58.5547 43.464L58.7836 43.7384C59.1654 44.2352 59.5301 44.9325 59.8621 45.762C60.1942 46.5907 60.4928 47.5531 60.6584 48.4821C60.8241 49.4104 60.8575 50.3067 60.8738 50.9862C60.8909 51.6664 60.8909 52.1312 60.8241 52.579C60.758 53.0268 60.6257 53.4576 60.3264 53.889C60.1039 54.2103 59.7896 54.5323 59.4178 54.8116H62.8084C64.1357 54.8116 65.2306 54.8116 66.093 54.6957C66.9561 54.5799 67.5867 54.3475 68.1342 54.0155C68.6816 53.6843 69.1459 53.2529 69.4445 52.8214C69.7438 52.39 69.876 51.9592 69.9421 51.5114C70.009 51.0637 70.009 50.5988 69.9919 49.9186C69.9755 49.2391 69.9421 48.3428 69.7765 47.4145C69.6108 46.4855 69.3122 45.5232 68.9802 44.6944C68.6482 43.8649 68.2835 43.1676 67.9017 42.6708C67.5206 42.1725 67.1218 41.874 66.7904 41.675C66.4584 41.476 66.1932 41.3765 65.9608 41.294C65.7283 41.2109 65.5292 41.1441 65.3138 41.1114C65.0976 41.078 64.8659 41.078 64.6263 41.1085C64.3867 41.1391 64.14 41.1995 63.8933 41.2606Z" fill="white"/>
<defs>
<filter id="filter0_d_5_6314" x="0" y="0" width="106" height="106" filterUnits="userSpaceOnUse" color-interpolation-filters="sRGB">
<feFlood flood-opacity="0" result="BackgroundImageFix"/>
<feColorMatrix in="SourceAlpha" type="matrix" values="0 0 0 0 0 0 0 0 0 0 0 0 0 0 0 0 0 0 127 0" result="hardAlpha"/>
<feMorphology radius="2" operator="erode" in="SourceAlpha" result="effect1_dropShadow_5_6314"/>
<feOffset dy="10"/>
<feGaussianBlur stdDeviation="11"/>
<feColorMatrix type="matrix" values="0 0 0 0 0.427083 0 0 0 0 0.671455 0 0 0 0 1 0 0 0 0.36 0"/>
<feBlend mode="normal" in2="BackgroundImageFix" result="effect1_dropShadow_5_6314"/>
<feBlend mode="normal" in="SourceGraphic" in2="effect1_dropShadow_5_6314" result="shape"/>
</filter>
<linearGradient id="paint0_linear_5_6314" x1="33.5" y1="10" x2="65" y2="76" gradientUnits="userSpaceOnUse">
<stop stop-color="#5CA1FE"/>
<stop offset="1" stop-color="#217BF4"/>
</linearGradient>
</defs>
</svg>
